%TF.GenerationSoftware,KiCad,Pcbnew,10.0.3*%
%TF.CreationDate,2026-07-07T22:57:18-07:00*%
%TF.ProjectId,expressionx3,65787072-6573-4736-996f-6e78332e6b69,rev?*%
%TF.SameCoordinates,Original*%
%TF.FileFunction,Soldermask,Bot*%
%TF.FilePolarity,Negative*%
%FSLAX46Y46*%
G04 Gerber Fmt 4.6, Leading zero omitted, Abs format (unit mm)*
G04 Created by KiCad (PCBNEW 10.0.3) date 2026-07-07 22:57:18*
%MOMM*%
%LPD*%
G01*
G04 APERTURE LIST*
G04 Aperture macros list*
%AMRoundRect*
0 Rectangle with rounded corners*
0 $1 Rounding radius*
0 $2 $3 $4 $5 $6 $7 $8 $9 X,Y pos of 4 corners*
0 Add a 4 corners polygon primitive as box body*
4,1,4,$2,$3,$4,$5,$6,$7,$8,$9,$2,$3,0*
0 Add four circle primitives for the rounded corners*
1,1,$1+$1,$2,$3*
1,1,$1+$1,$4,$5*
1,1,$1+$1,$6,$7*
1,1,$1+$1,$8,$9*
0 Add four rect primitives between the rounded corners*
20,1,$1+$1,$2,$3,$4,$5,0*
20,1,$1+$1,$4,$5,$6,$7,0*
20,1,$1+$1,$6,$7,$8,$9,0*
20,1,$1+$1,$8,$9,$2,$3,0*%
G04 Aperture macros list end*
%ADD10RoundRect,0.050800X0.850000X-0.850000X0.850000X0.850000X-0.850000X0.850000X-0.850000X-0.850000X0*%
%ADD11C,1.801600*%
%ADD12C,2.441600*%
%ADD13RoundRect,0.050800X-1.350000X-1.350000X1.350000X-1.350000X1.350000X1.350000X-1.350000X1.350000X0*%
%ADD14C,2.801600*%
%ADD15C,1.701600*%
%ADD16RoundRect,0.264941X0.635859X0.760859X-0.635859X0.760859X-0.635859X-0.760859X0.635859X-0.760859X0*%
%ADD17O,1.801600X2.051600*%
%ADD18RoundRect,0.050800X-0.850000X-0.850000X0.850000X-0.850000X0.850000X0.850000X-0.850000X0.850000X0*%
%ADD19C,1.501600*%
%ADD20RoundRect,0.261545X0.889255X0.889255X-0.889255X0.889255X-0.889255X-0.889255X0.889255X-0.889255X0*%
%ADD21C,2.301600*%
%ADD22RoundRect,0.050800X0.850000X0.850000X-0.850000X0.850000X-0.850000X-0.850000X0.850000X-0.850000X0*%
%ADD23RoundRect,0.265875X-0.584925X-0.584925X0.584925X-0.584925X0.584925X0.584925X-0.584925X0.584925X0*%
%ADD24RoundRect,0.265875X0.584925X-0.584925X0.584925X0.584925X-0.584925X0.584925X-0.584925X-0.584925X0*%
%ADD25RoundRect,0.265875X0.584925X0.584925X-0.584925X0.584925X-0.584925X-0.584925X0.584925X-0.584925X0*%
%ADD26RoundRect,0.265875X-0.584925X0.584925X-0.584925X-0.584925X0.584925X-0.584925X0.584925X0.584925X0*%
%ADD27RoundRect,0.050800X-0.952500X-1.000000X0.952500X-1.000000X0.952500X1.000000X-0.952500X1.000000X0*%
%ADD28O,2.006600X2.101600*%
%ADD29RoundRect,0.050800X0.800000X-0.800000X0.800000X0.800000X-0.800000X0.800000X-0.800000X-0.800000X0*%
%ADD30O,1.701600X1.701600*%
G04 APERTURE END LIST*
D10*
%TO.C,LED1*%
X30000000Y-79000000D03*
D11*
X32540000Y-79000000D03*
X35080000Y-79000000D03*
X37620000Y-79000000D03*
%TD*%
D12*
%TO.C,RV3*%
X80000000Y-34000000D03*
X75000000Y-34000000D03*
X70000000Y-34000000D03*
%TD*%
D13*
%TO.C,SW2*%
X40000000Y-39000000D03*
D14*
X40000000Y-44000000D03*
X40000000Y-49000000D03*
%TD*%
D10*
%TO.C,LED2*%
X50000000Y-79000000D03*
D11*
X52540000Y-79000000D03*
X55080000Y-79000000D03*
X57620000Y-79000000D03*
%TD*%
D15*
%TO.C,C2*%
X51000000Y-75000000D03*
X56000000Y-75000000D03*
%TD*%
%TO.C,C1*%
X41500000Y-78300000D03*
X46500000Y-78300000D03*
%TD*%
D13*
%TO.C,SW5*%
X70000000Y-39000000D03*
D14*
X70000000Y-44000000D03*
X70000000Y-49000000D03*
%TD*%
D13*
%TO.C,SW3*%
X50000000Y-39000000D03*
D14*
X50000000Y-44000000D03*
X50000000Y-49000000D03*
%TD*%
D16*
%TO.C,J3*%
X82140000Y-87635000D03*
D17*
X79640000Y-87635000D03*
X77140000Y-87635000D03*
%TD*%
D16*
%TO.C,J1*%
X42560000Y-87140000D03*
D17*
X40060000Y-87140000D03*
X37560000Y-87140000D03*
%TD*%
D13*
%TO.C,SW1*%
X30000000Y-39000000D03*
D14*
X30000000Y-44000000D03*
X30000000Y-49000000D03*
%TD*%
D18*
%TO.C,9v1*%
X27000000Y-68600000D03*
D11*
X27000000Y-71140000D03*
%TD*%
D12*
%TO.C,RV1*%
X40000000Y-34000000D03*
X35000000Y-34000000D03*
X30000000Y-34000000D03*
%TD*%
D13*
%TO.C,SW9*%
X75000000Y-59000000D03*
D14*
X75000000Y-64000000D03*
X75000000Y-69000000D03*
%TD*%
D13*
%TO.C,SW4*%
X60000000Y-39000000D03*
D14*
X60000000Y-44000000D03*
X60000000Y-49000000D03*
%TD*%
D10*
%TO.C,LED3*%
X70000000Y-79000000D03*
D11*
X72540000Y-79000000D03*
X75080000Y-79000000D03*
X77620000Y-79000000D03*
%TD*%
D12*
%TO.C,RV2*%
X60000000Y-34000000D03*
X55000000Y-34000000D03*
X50000000Y-34000000D03*
%TD*%
D19*
%TO.C,R1*%
X30000000Y-72060000D03*
X30000000Y-64440000D03*
%TD*%
D13*
%TO.C,SW6*%
X80000000Y-39000000D03*
D14*
X80000000Y-44000000D03*
X80000000Y-49000000D03*
%TD*%
D13*
%TO.C,SW7*%
X35000000Y-62000000D03*
D14*
X35000000Y-66000000D03*
%TD*%
D20*
%TO.C,1N4001*%
X37000000Y-75000000D03*
D21*
X26840000Y-75000000D03*
%TD*%
D16*
%TO.C,J2*%
X62750000Y-87350000D03*
D17*
X60250000Y-87350000D03*
X57750000Y-87350000D03*
%TD*%
D13*
%TO.C,SW8*%
X55000000Y-59000000D03*
D14*
X55000000Y-64000000D03*
X55000000Y-69000000D03*
%TD*%
D22*
%TO.C,FS3*%
X83000000Y-72500000D03*
D11*
X83000000Y-75040000D03*
%TD*%
D23*
%TO.C,D18*%
X71190000Y-71500000D03*
D15*
X78810000Y-71500000D03*
%TD*%
D22*
%TO.C,FS2*%
X83000000Y-66000000D03*
D11*
X83000000Y-68540000D03*
%TD*%
D24*
%TO.C,D3*%
X36400000Y-48600000D03*
D15*
X36400000Y-40980000D03*
%TD*%
D23*
%TO.C,U1*%
X26190000Y-88410000D03*
D15*
X26190000Y-85870000D03*
X26190000Y-83330000D03*
X26190000Y-80790000D03*
X33810000Y-80790000D03*
X33810000Y-83330000D03*
X33810000Y-85870000D03*
X33810000Y-88410000D03*
%TD*%
D22*
%TO.C,FS1*%
X83000000Y-59460000D03*
D11*
X83000000Y-62000000D03*
%TD*%
D25*
%TO.C,D13*%
X49060000Y-62750000D03*
D15*
X41440000Y-62750000D03*
%TD*%
D26*
%TO.C,D17*%
X78500000Y-58690000D03*
D15*
X78500000Y-66310000D03*
%TD*%
D25*
%TO.C,D8*%
X68600000Y-52000000D03*
D15*
X60980000Y-52000000D03*
%TD*%
D23*
%TO.C,D14*%
X41690000Y-60000000D03*
D15*
X49310000Y-60000000D03*
%TD*%
D23*
%TO.C,D20*%
X71190000Y-76500000D03*
D15*
X78810000Y-76500000D03*
%TD*%
D10*
%TO.C,J2A1*%
X62770000Y-84600000D03*
D11*
X60230000Y-84600000D03*
X57690000Y-84600000D03*
%TD*%
D25*
%TO.C,D2*%
X37210000Y-51800000D03*
D15*
X29590000Y-51800000D03*
%TD*%
D27*
%TO.C,VR1*%
X41420000Y-75000000D03*
D28*
X43960000Y-75000000D03*
X46500000Y-75000000D03*
%TD*%
D24*
%TO.C,D9*%
X66400000Y-48610000D03*
D15*
X66400000Y-40990000D03*
%TD*%
D10*
%TO.C,J3A1*%
X82140000Y-84900000D03*
D11*
X79600000Y-84900000D03*
X77060000Y-84900000D03*
%TD*%
D26*
%TO.C,D15*%
X60500000Y-59690000D03*
D15*
X60500000Y-67310000D03*
%TD*%
D10*
%TO.C,J1B1*%
X42580000Y-82100000D03*
D11*
X40040000Y-82100000D03*
X37500000Y-82100000D03*
%TD*%
D24*
%TO.C,D11*%
X76400000Y-48610000D03*
D15*
X76400000Y-40990000D03*
%TD*%
D29*
%TO.C,MCU1*%
X33500000Y-56250000D03*
D30*
X36040000Y-56250000D03*
X38580000Y-56250000D03*
X41120000Y-56250000D03*
X43660000Y-56250000D03*
X46200000Y-56250000D03*
X48740000Y-56250000D03*
X51280000Y-56250000D03*
X53820000Y-56250000D03*
X56360000Y-56250000D03*
X58900000Y-56250000D03*
X61440000Y-56250000D03*
X61440000Y-71490000D03*
X58900000Y-71490000D03*
X56360000Y-71490000D03*
X53820000Y-71490000D03*
X51280000Y-71490000D03*
X48740000Y-71490000D03*
X46200000Y-71490000D03*
X43660000Y-71490000D03*
X41120000Y-71490000D03*
X38580000Y-71490000D03*
X36040000Y-71490000D03*
X33500000Y-71490000D03*
%TD*%
D24*
%TO.C,D1*%
X26800000Y-48610000D03*
D15*
X26800000Y-40990000D03*
%TD*%
D25*
%TO.C,D4*%
X48000000Y-51800000D03*
D15*
X40380000Y-51800000D03*
%TD*%
D23*
%TO.C,C3*%
X65700000Y-64400000D03*
D15*
X69200000Y-64400000D03*
%TD*%
D23*
%TO.C,U2*%
X46180000Y-88320000D03*
D15*
X46180000Y-85780000D03*
X46180000Y-83240000D03*
X46180000Y-80700000D03*
X53800000Y-80700000D03*
X53800000Y-83240000D03*
X53800000Y-85780000D03*
X53800000Y-88320000D03*
%TD*%
D23*
%TO.C,D12*%
X72000000Y-52000000D03*
D15*
X79620000Y-52000000D03*
%TD*%
D23*
%TO.C,D10*%
X64440000Y-55750000D03*
D15*
X72060000Y-55750000D03*
%TD*%
D24*
%TO.C,D7*%
X56400000Y-48620000D03*
D15*
X56400000Y-41000000D03*
%TD*%
D10*
%TO.C,J3B1*%
X82140000Y-82360000D03*
D11*
X79600000Y-82360000D03*
X77060000Y-82360000D03*
%TD*%
D23*
%TO.C,D19*%
X71190000Y-74000000D03*
D15*
X78810000Y-74000000D03*
%TD*%
D10*
%TO.C,J1A1*%
X42580000Y-84640000D03*
D11*
X40040000Y-84640000D03*
X37500000Y-84640000D03*
%TD*%
D24*
%TO.C,D5*%
X46400000Y-48620000D03*
D15*
X46400000Y-41000000D03*
%TD*%
D23*
%TO.C,U3*%
X66295000Y-88310000D03*
D15*
X66295000Y-85770000D03*
X66295000Y-83230000D03*
X66295000Y-80690000D03*
X73915000Y-80690000D03*
X73915000Y-83230000D03*
X73915000Y-85770000D03*
X73915000Y-88310000D03*
%TD*%
D23*
%TO.C,D16*%
X64190000Y-58500000D03*
D15*
X71810000Y-58500000D03*
%TD*%
D10*
%TO.C,J2B1*%
X62770000Y-82060000D03*
D11*
X60230000Y-82060000D03*
X57690000Y-82060000D03*
%TD*%
D25*
%TO.C,D6*%
X58200000Y-51800000D03*
D15*
X50580000Y-51800000D03*
%TD*%
M02*
