M48
; DRILL file KiCad 10.0.3 date 2026-07-07T22:57:13
; FORMAT={-:-/ absolute / metric / decimal}
; #@! TF.CreationDate,2026-07-07T22:57:13-07:00
; #@! TF.GenerationSoftware,Kicad,Pcbnew,10.0.3
; #@! TF.FileFunction,Plated,1,2,PTH
FMAT,2
METRIC
; #@! TA.AperFunction,Plated,PTH,ViaDrill
T1C0.300
; #@! TA.AperFunction,Plated,PTH,ComponentDrill
T2C0.700
; #@! TA.AperFunction,Plated,PTH,ComponentDrill
T3C0.800
; #@! TA.AperFunction,Plated,PTH,ComponentDrill
T4C0.950
; #@! TA.AperFunction,Plated,PTH,ComponentDrill
T5C1.000
; #@! TA.AperFunction,Plated,PTH,ComponentDrill
T6C1.100
; #@! TA.AperFunction,Plated,PTH,ComponentDrill
T7C1.300
; #@! TA.AperFunction,Plated,PTH,ComponentDrill
T8C2.000
%
G90
G05
T1
X28.0Y-83.4
X29.05Y-77.25
X32.2Y-86.56
X32.25Y-38.75
X33.0Y-39.25
X33.75Y-38.75
X40.7Y-80.175
X44.9Y-80.175
X47.0Y-35.545
X47.0Y-36.5
X49.0Y-76.0
X49.2Y-85.3
X51.315Y-83.185
X52.3Y-77.2
X52.5Y-52.0
X52.5Y-86.47
X58.1Y-76.6
X60.5Y-63.25
X63.0Y-36.5
X63.7Y-65.7
X64.8Y-83.7
X66.4Y-77.8
X67.0Y-36.5
X67.3Y-69.3
X69.0Y-54.0
X72.0Y-54.0
X73.0Y-44.0
X74.595Y-51.155
X76.75Y-44.0
X78.095Y-54.655
T2
X30.0Y-64.44
X30.0Y-72.06
T3
X26.19Y-80.79
X26.19Y-83.33
X26.19Y-85.87
X26.19Y-88.41
X26.8Y-40.99
X26.8Y-48.61
X29.59Y-51.8
X33.5Y-56.25
X33.5Y-71.49
X33.81Y-80.79
X33.81Y-83.33
X33.81Y-85.87
X33.81Y-88.41
X36.04Y-56.25
X36.04Y-71.49
X36.4Y-40.98
X36.4Y-48.6
X37.21Y-51.8
X38.58Y-56.25
X38.58Y-71.49
X40.38Y-51.8
X41.12Y-56.25
X41.12Y-71.49
X41.44Y-62.75
X41.5Y-78.3
X41.69Y-60.0
X43.66Y-56.25
X43.66Y-71.49
X46.18Y-80.7
X46.18Y-83.24
X46.18Y-85.78
X46.18Y-88.32
X46.2Y-56.25
X46.2Y-71.49
X46.4Y-41.0
X46.4Y-48.62
X46.5Y-78.3
X48.0Y-51.8
X48.74Y-56.25
X48.74Y-71.49
X49.06Y-62.75
X49.31Y-60.0
X50.58Y-51.8
X51.0Y-75.0
X51.28Y-56.25
X51.28Y-71.49
X53.8Y-80.7
X53.8Y-83.24
X53.8Y-85.78
X53.8Y-88.32
X53.82Y-56.25
X53.82Y-71.49
X56.0Y-75.0
X56.36Y-56.25
X56.36Y-71.49
X56.4Y-41.0
X56.4Y-48.62
X58.2Y-51.8
X58.9Y-56.25
X58.9Y-71.49
X60.5Y-59.69
X60.5Y-67.31
X60.98Y-52.0
X61.44Y-56.25
X61.44Y-71.49
X64.19Y-58.5
X64.44Y-55.75
X65.7Y-64.4
X66.295Y-80.69
X66.295Y-83.23
X66.295Y-85.77
X66.295Y-88.31
X66.4Y-40.99
X66.4Y-48.61
X68.6Y-52.0
X69.2Y-64.4
X71.19Y-71.5
X71.19Y-74.0
X71.19Y-76.5
X71.81Y-58.5
X72.0Y-52.0
X72.06Y-55.75
X73.915Y-80.69
X73.915Y-83.23
X73.915Y-85.77
X73.915Y-88.31
X76.4Y-40.99
X76.4Y-48.61
X78.5Y-58.69
X78.5Y-66.31
X78.81Y-71.5
X78.81Y-74.0
X78.81Y-76.5
X79.62Y-52.0
T4
X37.56Y-87.14
X40.06Y-87.14
X42.56Y-87.14
X57.75Y-87.35
X60.25Y-87.35
X62.75Y-87.35
X77.14Y-87.635
X79.64Y-87.635
X82.14Y-87.635
T5
X27.0Y-68.6
X27.0Y-71.14
X30.0Y-79.0
X32.54Y-79.0
X35.08Y-79.0
X37.5Y-82.1
X37.5Y-84.64
X37.62Y-79.0
X40.04Y-82.1
X40.04Y-84.64
X42.58Y-82.1
X42.58Y-84.64
X50.0Y-79.0
X52.54Y-79.0
X55.08Y-79.0
X57.62Y-79.0
X57.69Y-82.06
X57.69Y-84.6
X60.23Y-82.06
X60.23Y-84.6
X62.77Y-82.06
X62.77Y-84.6
X70.0Y-79.0
X72.54Y-79.0
X75.08Y-79.0
X77.06Y-82.36
X77.06Y-84.9
X77.62Y-79.0
X79.6Y-82.36
X79.6Y-84.9
X82.14Y-82.36
X82.14Y-84.9
X83.0Y-59.46
X83.0Y-62.0
X83.0Y-66.0
X83.0Y-68.54
X83.0Y-72.5
X83.0Y-75.04
T6
X26.84Y-75.0
X37.0Y-75.0
X41.42Y-75.0
X43.96Y-75.0
X46.5Y-75.0
T7
X30.0Y-34.0
X35.0Y-34.0
X40.0Y-34.0
X50.0Y-34.0
X55.0Y-34.0
X60.0Y-34.0
X70.0Y-34.0
X75.0Y-34.0
X80.0Y-34.0
T8
X30.0Y-39.0
X30.0Y-44.0
X30.0Y-49.0
X35.0Y-62.0
X35.0Y-66.0
X40.0Y-39.0
X40.0Y-44.0
X40.0Y-49.0
X50.0Y-39.0
X50.0Y-44.0
X50.0Y-49.0
X55.0Y-59.0
X55.0Y-64.0
X55.0Y-69.0
X60.0Y-39.0
X60.0Y-44.0
X60.0Y-49.0
X70.0Y-39.0
X70.0Y-44.0
X70.0Y-49.0
X75.0Y-59.0
X75.0Y-64.0
X75.0Y-69.0
X80.0Y-39.0
X80.0Y-44.0
X80.0Y-49.0
M30
